# xmcd
#
# Track frame offsets: 
#        150
#        23520
#        35476
#        77927
#        90311
#        130164
#        149064
#        187510
#
# Disc length: 2766 seconds
#
# Revision: 0
# Processed by: cddbd v1.5.2PL0 Copyright (c) Steve Scherf et al.
# Submitted via: ExactAudioCopy v0.99pb5
#
DISCID=5b0acc08
DTITLE=Frank Sinatra &Count Basie  - An Historic Musical First - Disc 
DTITLE=1
DYEAR=1900
DGENRE=
TTITLE0=Nice Work If You Can Get It - alt.
TTITLE1=Nice Work If You Can Get It - master
TTITLE2=Please Be Kind - alt.
TTITLE3=Please Be Kind - master
TTITLE4=I Won't Dance - alt.
TTITLE5=I Won't Dance - master
TTITLE6=Learnin' The Blues - alt.
TTITLE7=Learnin' The Blues - master
EXTD=
EXTT0=
EXTT1=
EXTT2=
EXTT3=
EXTT4=
EXTT5=
EXTT6=
EXTT7=
PLAYORDER=
